<svg id="Logo" data-name="Logo" xmlns="http://www.w3.org/2000/svg" viewBox="0 0 850.39 850.39"><defs><style>.cls-1{fill:#689c2f;stroke:#ffffff;stroke-width:8;stroke-miterlimit:10;}.cls-2{fill:#284f4e;stroke:#ffffff;stroke-width:8;stroke-miterlimit:10;}</style></defs><path class="cls-1" d="M593.13,298.59c-21.09-24.8-74.48-9.38-83.74,43.22-69.81-135.42-280.61-123-280.61-123s27.36,58.47,95.57,70.1c67.65,11.53,124.49,36,163.78,97.47,34.43,44.81,9.35,148.92-68.42,166.53-27.34,6.19-75-1.29-73.86-.49,37.7,23,31.57,13,70.14,14.93C547,574,607,450.75,580.77,368.93,572.66,338.35,554.55,298.34,593.13,298.59Z"/><path class="cls-1" d="M350.92,370.58c50.56,12.76,114.6,39.49,103.39,120.87,16-26.44,14.47-63.38,1-84.64-31.35-54.15-92.26-59.82-138.21-87C314.8,346,333.18,364.44,350.92,370.58Z"/><path class="cls-2" d="M658.48,291.68a204.64,204.64,0,0,0-52-65.67c104.44,145.15,31.33,274.4-63.69,322a192.44,192.44,0,0,1-255.6-80.95q1.83,4.41,3.85,8.73A205.5,205.5,0,1,0,658.48,291.68Z"/><path class="cls-2" d="M452.54,581.64a300,300,0,0,1-128.38-23.9c-37.94-16.21-71.73-38.89-100.45-68.78-4.68-4.87-9.65-9.48-15.76-15.45-.56,16.68,54.36,67,95,89.34,39,21.48,80.87,33.64,126,38.94-5.41,3.12-10.65,6.56-16.25,9.3-13.34,6.51-26.82,12.77-40.32,18.94a18.48,18.48,0,0,1-8.06,1.87c-4.32-.19-9.81,0-12.46-2.44-1.71-1.6.65-7.7,1.39-11.74.26-1.46,1.18-2.78,1.71-4.2,3.52-9.52.81-14.06-9.25-13-18.79,1.9-37.48,4.86-56.22,7.36-19.26,2.57-38.64,6.06-57.91,1.9-7.2-1.55-14.53-5.72-20.15-10.59-6.57-5.7-6.69-12.77-1.35-19.71,4.55-5.91,10.45-10.79,15.92-16,2.56-2.41,5.75-4.17,8.24-6.64,5.71-5.66,5.11-10.25-2.29-13.23-9.1-3.67-18.63-6.26-27.83-9.69-12.16-4.54-20.2-13-23.2-25.87-1.52-6.52-1.2-12.11,6.63-14.43a13.18,13.18,0,0,0,5.25-2.94c1.3-1.23,2.61-3.18,2.6-4.8,0-1.07-2.22-2.85-3.64-3.09-14.83-2.44-18.55-12.63-19-25.79-.33-9.56-1.43-19.11-2.53-28.63-.77-6.71,1.6-10.26,8.39-11.84,9.78-2.28,18.78-2.86,27,4.43,4.29,3.79,9.42,3.33,13.82-.46,17.54-15.14,22.95-10,33.41,6.91,5.1,8.25,7.62,18.06,11.76,26.95,1.37,2.94,4,7.07,6.34,7.3s5.94-3.23,7.63-5.92c3.88-6.17,6.86-12.9,10.36-19.32,11.12-20.39,27.57-21.68,40-1.94,6.32,10,10.22,21.87,13.73,33.34,5,16.38,8.64,33.18,12.93,49.78a34.62,34.62,0,0,0,2.58,7.1c2.93,5.69,7.45,6.63,12.27,2.5a98,98,0,0,0,7.4-7.57c5.42-5.77,11.59-6.3,17.48-1.4a105.92,105.92,0,0,1,14.24,14.48c6.67,8.21,12.52,17.1,19.12,25.38C440.71,573.07,456.16,581.53,452.54,581.64Z"/></svg>
